<svg width="34" height="34" viewBox="0 0 34 34" fill="none" xmlns="http://www.w3.org/2000/svg">
<path fill-rule="evenodd" clip-rule="evenodd" d="M30.9268 16.9634C30.9268 24.6752 24.6752 30.9268 16.9634 30.9268C9.25163 30.9268 3 24.6752 3 16.9634C3 9.25163 9.25163 3 16.9634 3C24.6752 3 30.9268 9.25163 30.9268 16.9634ZM33.9268 16.9634C33.9268 26.332 26.332 33.9268 16.9634 33.9268C7.59477 33.9268 0 26.332 0 16.9634C0 7.59477 7.59477 0 16.9634 0C26.332 0 33.9268 7.59477 33.9268 16.9634ZM14.2096 22.4963L22.471 16.9634L14.2096 11.4305L14.2096 22.4963Z" fill="white"/>
</svg>
